<svg width="15" height="17" viewBox="0 0 15 17" fill="none" xmlns="http://www.w3.org/2000/svg">
<path id="Vector" d="M12.8214 6.94977H8.64286V2.33706C8.64286 1.77104 8.22703 1.31201 7.71429 1.31201H6.78571C6.27297 1.31201 5.85714 1.77104 5.85714 2.33706V6.94977H1.67857C1.16583 6.94977 0.75 7.4088 0.75 7.97481V8.99986C0.75 9.56588 1.16583 10.0249 1.67857 10.0249H5.85714V14.6376C5.85714 15.2036 6.27297 15.6627 6.78571 15.6627H7.71429C8.22703 15.6627 8.64286 15.2036 8.64286 14.6376V10.0249H12.8214C13.3342 10.0249 13.75 9.56588 13.75 8.99986V7.97481C13.75 7.4088 13.3342 6.94977 12.8214 6.94977Z" fill="#2D9985" stroke="#2D9985"/>
</svg>
